<?xml version="1.0" encoding="UTF-8" standalone="no"?>
<svg width="335px" height="316px" viewBox="0 0 335 316" version="1.1" xmlns="http://www.w3.org/2000/svg" xmlns:xlink="http://www.w3.org/1999/xlink" xmlns:sketch="http://www.bohemiancoding.com/sketch/ns">
    <!-- Generator: Sketch 3.3.3 (12081) - http://www.bohemiancoding.com/sketch -->
    <title>icon</title>
    <desc>Created with Sketch.</desc>
    <defs></defs>
    <g id="Page-1" stroke="none" stroke-width="1" fill="none" fill-rule="evenodd" sketch:type="MSPage">
        <g id="icon" sketch:type="MSLayerGroup" fill="#53B6E5">
            <rect id="Rectangle-path" sketch:type="MSShapeGroup" x="0" y="0" width="335" height="316"></rect>
        </g>
        <g id="30_TG9jayBzaW5nbGUgaWNvbiBjb2xvci5qcGc" sketch:type="MSLayerGroup" transform="translate(38.000000, 28.000000)">
            <path d="M238.333333,130 C238.333333,189.830983 189.830983,238.333333 130,238.333333 C70.1690167,238.333333 21.6666667,189.830983 21.6666667,130 C21.6666667,70.1690167 70.1690167,21.6666667 130,21.6666667 C189.830983,21.6666667 238.333333,70.1690167 238.333333,130" id="Fill-3" stroke="#53B6E5" fill="#97CCF6" sketch:type="MSShapeGroup"></path>
            <path d="M236.175333,151.6216 L162.752417,78.19955 C155.09975,70.2678167 143.4901,65.1378 130.4641,65.0021667 C107.256933,64.7863667 88.2149667,80.53695 88.03015,100.117117 L87.79615,125.003883 L94.3457667,131.5483 L82.5989667,131.5483 L82.5989667,186.0638 C82.5989667,188.758917 83.7954,191.1728 85.6819167,192.8108 L131.19665,238.324667 C183.090917,237.7635 226.230333,200.71545 236.175333,151.6216" id="Fill-4" fill="#53B6E5" sketch:type="MSShapeGroup"></path>
            <path d="M135.702883,160.662233 L139.298683,183.895617 L120.7063,183.895617 L124.5647,160.82885 C121.884317,159.068433 120.095517,156.00845 120.095517,152.563667 C120.095517,147.077667 124.5361,142.636867 130.0091,142.636867 C135.479283,142.636867 139.909683,147.077667 139.909683,152.563667 C139.909683,155.92005 138.250883,158.860433 135.702883,160.662233" id="Fill-5" fill="#ECF0F0" sketch:type="MSShapeGroup"></path>
            <path d="M139.298683,183.895617 L135.702883,160.662233 C138.250883,158.860433 139.909683,155.92005 139.909683,152.563667 C139.909683,147.077667 135.479283,142.636867 130.0091,142.636867 C124.5361,142.636867 120.095517,147.077667 120.095517,152.563667 C120.095517,156.00845 121.884317,159.068433 124.5647,160.82885 L120.7063,183.895617 L139.298683,183.895617 L139.298683,183.895617 Z M177.401033,131.5483 L177.401033,186.0638 C177.401033,191.0012 173.40765,195 168.47025,195 L91.53495,195 C86.60795,195 82.5989667,191.0012 82.5989667,186.0638 L82.5989667,131.5483 L177.401033,131.5483 L177.401033,131.5483 Z" id="Fill-6" fill="#2C3D50" sketch:type="MSShapeGroup"></path>
            <path d="M130.4641,65.0021667 C153.689467,65.2439667 172.41445,81.36115 172.22985,100.933733 L171.98805,125.828083 L160.075067,125.708483 L160.309067,100.821717 C160.444267,87.7959333 147.002483,77.09195 130.3601,76.91515 C113.709917,76.76175 100.05775,87.2265333 99.94075,100.229133 L99.6987333,125.131283 L87.79615,125.003883 L88.03015,100.117117 C88.2149667,80.53695 107.256933,64.7863667 130.4641,65.0021667" id="Fill-7" fill="#2C3D50" sketch:type="MSShapeGroup"></path>
        </g>
    </g>
</svg>